HIERARCHY
ROOT Hips
{
	OFFSET 0.000000 89.005402 0.000000
	CHANNELS 6 Xposition Yposition Zposition Xrotation Yrotation Zrotation
	JOINT Spine
	{
		OFFSET 0.116900 10.681000 0.373400
		CHANNELS 3 Xrotation Yrotation Zrotation
		JOINT Spine1
		{
			OFFSET 0.000000 13.840401 0.053500
			CHANNELS 3 Xrotation Yrotation Zrotation
			JOINT Spine2
			{
				OFFSET 0.000000 14.712700 -0.366200
				CHANNELS 3 Xrotation Yrotation Zrotation
				JOINT Neck
				{
					OFFSET 0.000000 35.415497 -3.314200
					CHANNELS 3 Xrotation Yrotation Zrotation
					JOINT Head
					{
						OFFSET 0.000000 16.899200 1.218300
						CHANNELS 3 Xrotation Yrotation Zrotation
						JOINT HeadTop_End
						{
							OFFSET 0.000000 22.206207 2.192500
							CHANNELS 3 Xrotation Yrotation Zrotation
							End Site
							{
								OFFSET 0.000000 22.314178 0.000000
							}
						}
					}
				}
				JOINT LeftShoulder
				{
					OFFSET 12.896400 26.716293 -4.548400
					CHANNELS 3 Xrotation Yrotation Zrotation
					JOINT LeftArm
					{
						OFFSET 19.027000 -4.857010 -1.718400
						CHANNELS 3 Xrotation Yrotation Zrotation
						JOINT LeftForeArm
						{
							OFFSET 24.179897 0.000000 0.000000
							CHANNELS 3 Xrotation Yrotation Zrotation
							JOINT LeftHand
							{
								OFFSET 27.156403 0.000000 0.000000
								CHANNELS 3 Xrotation Yrotation Zrotation
								JOINT LeftHandIndex1
								{
									OFFSET 16.441200 0.000000 0.000000
									CHANNELS 3 Xrotation Yrotation Zrotation
									JOINT LeftHandIndex2
									{
										OFFSET 4.821899 0.000000 0.000000
										CHANNELS 3 Xrotation Yrotation Zrotation
										JOINT LeftHandIndex3
										{
											OFFSET 6.386497 0.000000 0.000000
											CHANNELS 3 Xrotation Yrotation Zrotation
											JOINT LeftHandIndex4
											{
												OFFSET 5.188988 0.000000 0.000000
												CHANNELS 3 Xrotation Yrotation Zrotation
												End Site
												{
													OFFSET -0.178703 5.185913 0.000177
												}
											}
										}
									}
								}
								JOINT LeftHandThumb1
								{
									OFFSET 6.534897 -5.032593 5.900300
									CHANNELS 3 Xrotation Yrotation Zrotation
									JOINT LeftHandThumb2
									{
										OFFSET 3.818176 -2.204422 2.204423
										CHANNELS 3 Xrotation Yrotation Zrotation
										JOINT LeftHandThumb3
										{
											OFFSET 3.252098 -1.877594 1.877601
											CHANNELS 3 Xrotation Yrotation Zrotation
											JOINT LeftHandThumb4
											{
												OFFSET 5.251778 -3.032120 3.032117
												CHANNELS 3 Xrotation Yrotation Zrotation
												End Site
												{
													OFFSET 0.000023 6.780014 0.000000
												}
											}
										}
									}
								}
							}
						}
					}
				}
				JOINT RightShoulder
				{
					OFFSET -12.896300 26.716293 -4.548400
					CHANNELS 3 Xrotation Yrotation Zrotation
					JOINT RightArm
					{
						OFFSET -19.027000 -4.857010 -1.718400
						CHANNELS 3 Xrotation Yrotation Zrotation
						JOINT RightForeArm
						{
							OFFSET -24.179897 0.000000 0.000000
							CHANNELS 3 Xrotation Yrotation Zrotation
							JOINT RightHand
							{
								OFFSET -27.156403 0.000000 0.000000
								CHANNELS 3 Xrotation Yrotation Zrotation
								JOINT RightHandThumb1
								{
									OFFSET -6.591202 -4.852203 5.988100
									CHANNELS 3 Xrotation Yrotation Zrotation
									JOINT RightHandThumb2
									{
										OFFSET -3.818176 -2.204422 2.204423
										CHANNELS 3 Xrotation Yrotation Zrotation
										JOINT RightHandThumb3
										{
											OFFSET -3.252098 -1.877594 1.877601
											CHANNELS 3 Xrotation Yrotation Zrotation
											JOINT RightHandThumb4
											{
												OFFSET -5.251778 -3.032120 3.032117
												CHANNELS 3 Xrotation Yrotation Zrotation
												End Site
												{
													OFFSET -0.000023 6.780014 0.000000
												}
											}
										}
									}
								}
								JOINT RightHandIndex1
								{
									OFFSET -16.029404 0.000000 0.000000
									CHANNELS 3 Xrotation Yrotation Zrotation
									JOINT RightHandIndex2
									{
										OFFSET -5.213303 0.000000 0.000000
										CHANNELS 3 Xrotation Yrotation Zrotation
										JOINT RightHandIndex3
										{
											OFFSET -6.386528 0.000000 0.000000
											CHANNELS 3 Xrotation Yrotation Zrotation
											JOINT RightHandIndex4
											{
												OFFSET -5.189026 0.000000 0.000000
												CHANNELS 3 Xrotation Yrotation Zrotation
												End Site
												{
													OFFSET 0.236702 5.183624 0.001972
												}
											}
										}
									}
								}
							}
						}
					}
				}
			}
		}
	}
	JOINT LeftUpLeg
	{
		OFFSET 14.073000 -7.904099 -1.463000
		CHANNELS 3 Xrotation Yrotation Zrotation
		JOINT LeftLeg
		{
			OFFSET -0.109806 -34.073280 4.093200
			CHANNELS 3 Xrotation Yrotation Zrotation
			JOINT LeftFoot
			{
				OFFSET 0.109806 -29.899420 -6.319000
				CHANNELS 3 Xrotation Yrotation Zrotation
				JOINT LeftToeBase
				{
					OFFSET 1.551100 -14.988700 20.535801
					CHANNELS 3 Xrotation Yrotation Zrotation
					JOINT LeftToe_End
					{
						OFFSET 0.221200 0.570800 13.248301
						CHANNELS 3 Xrotation Yrotation Zrotation
						End Site
						{
							OFFSET 0.000000 13.262435 0.000000
						}
					}
				}
			}
		}
	}
	JOINT RightUpLeg
	{
		OFFSET -13.839300 -7.904099 -1.463000
		CHANNELS 3 Xrotation Yrotation Zrotation
		JOINT RightLeg
		{
			OFFSET 0.109694 -34.073219 4.093300
			CHANNELS 3 Xrotation Yrotation Zrotation
			JOINT RightFoot
			{
				OFFSET -0.109694 -29.899384 -6.319200
				CHANNELS 3 Xrotation Yrotation Zrotation
				JOINT RightToeBase
				{
					OFFSET -1.551100 -14.988700 20.535801
					CHANNELS 3 Xrotation Yrotation Zrotation
					JOINT RightToe_End
					{
						OFFSET -0.221200 0.570900 13.248299
						CHANNELS 3 Xrotation Yrotation Zrotation
						End Site
						{
							OFFSET 0.000000 13.262440 0.000000
						}
					}
				}
			}
		}
	}
}
MOTION
Frames: 8
Frame Time: 0.033333
-6.041222 78.424683 148.399231 34.809144 39.442256 -43.226925 5.962375 14.548204 -8.036317 3.032469 6.642082 -5.068493 2.954015 6.569297 -5.199058 -0.847662 -13.914712 8.224522 5.586100 -55.116205 26.765013 0.000001 0.000001 0.000000 5.286830 15.364999 -13.694744 33.774145 -0.701903 -47.245020 0.000018 -23.600913 0.000001 -75.596267 -18.796035 -14.645789 11.160595 -5.176480 -51.539784 2.604390 4.870260 -56.250928 1.098010 3.416163 -35.627660 -0.000001 0.000004 0.000001 -7.197408 9.830816 2.280899 5.159111 25.077688 -10.283785 2.999918 18.648095 18.073480 -0.000004 0.000001 0.000000 -23.387351 24.461395 5.727666 -5.934163 45.493172 51.998958 -0.000021 53.011591 0.000013 -48.074491 12.592085 24.074429 -5.336379 2.443558 21.232748 8.521757 -33.055203 -3.411402 -2.977018 -32.851523 -20.242664 -0.000003 0.000000 -0.000000 7.666306 7.433306 62.152529 0.778340 -2.579524 33.575601 0.153766 -1.188079 14.748836 0.000000 -0.000001 -0.000001 -78.407368 -47.521973 -19.173574 31.916764 2.920994 7.968541 -1.912149 -28.811835 -21.046021 -5.449340 0.000007 0.000002 0.000001 0.000002 0.000000 6.139223 -6.609700 11.067395 9.288227 -9.159020 -1.195627 -4.390390 -13.055651 4.621273 -13.400565 -3.825824 16.896401 -0.000000 0.000001 -0.000001 
-5.960037 78.850464 149.093597 36.376088 41.918869 -45.395582 6.042938 14.207111 -7.101220 3.166990 6.204511 -4.578524 3.118530 6.147930 -4.683203 -0.432072 -13.668471 8.237649 5.267738 -55.045714 27.414016 0.000000 0.000001 0.000000 4.737072 14.247721 -13.095367 36.566890 1.114525 -50.079992 -0.000024 -23.545431 -0.000004 -75.559828 -18.556067 -15.779556 11.160603 -5.176479 -51.539764 2.604372 4.870259 -56.250829 1.098009 3.416181 -35.627653 0.000000 -0.000001 -0.000001 -7.197407 9.830797 2.280880 5.159113 25.077670 -10.283800 2.999912 18.648085 18.073476 0.000001 -0.000001 -0.000002 -23.501624 23.742222 6.208022 -1.855100 42.861431 49.533799 -0.000050 56.711686 0.000061 -40.303819 6.749267 25.340799 -5.656884 2.361100 20.941963 8.708479 -34.692658 -3.497442 -2.989620 -32.588113 -20.189416 -0.000000 0.000000 0.000001 8.077106 7.036903 64.417263 0.827894 -2.652629 34.661851 0.198453 -1.346395 16.769170 0.000003 -0.000000 -0.000000 -77.194839 -46.717469 -19.067035 31.083604 -0.256285 7.481454 -1.697982 -28.911532 -20.146618 -5.625242 -0.000008 0.000005 0.000001 -0.000001 -0.000000 5.215744 -7.872983 9.674171 7.942726 -8.967080 -1.196754 -5.394394 -11.696449 5.599814 -11.953911 -2.752584 14.426241 -0.000001 -0.000003 0.000000 
-5.933640 79.200172 149.555756 36.936782 43.958944 -46.781605 6.129258 13.830052 -6.362127 3.289396 5.746051 -4.161972 3.267222 5.704858 -4.235066 -0.019882 -13.267591 8.326705 4.487784 -54.318189 27.482779 -0.000000 -0.000000 -0.000001 4.313732 13.247977 -12.772613 38.050892 3.247926 -53.519023 -0.000008 -23.611071 -0.000007 -75.259922 -16.954526 -16.314682 11.160553 -5.176509 -51.539573 2.604343 4.870242 -56.250515 1.098005 3.416190 -35.627595 0.000001 0.000002 0.000001 -7.197437 9.830733 2.280883 5.159092 25.077613 -10.283778 2.999898 18.648022 18.073468 -0.000001 -0.000000 0.000001 -23.025729 22.583189 6.809371 2.527982 41.385451 45.084607 -0.000036 56.913566 0.000043 -32.443843 3.295897 27.846654 -5.977578 2.276369 20.628490 8.864217 -36.052969 -3.565198 -3.012533 -32.121939 -20.095332 -0.000000 -0.000001 0.000000 8.466089 6.715259 66.069144 0.863087 -2.702764 35.414995 0.240610 -1.479073 18.479261 -0.000001 0.000000 0.000001 -75.417002 -45.627392 -18.450170 30.829978 -3.470328 7.131630 -1.579547 -28.701623 -19.262747 -5.789345 0.000010 0.000001 0.000000 0.000001 0.000000 4.681226 -9.176681 8.732000 6.346458 -8.965026 -1.094049 -6.293623 -11.685852 6.850550 -9.810471 -1.678991 11.363166 -0.000000 -0.000002 0.000001 
-5.939182 79.364235 149.838150 36.385941 45.436235 -47.079872 6.207766 13.580584 -5.984369 3.380663 5.425479 -3.916758 3.380776 5.393358 -3.961872 0.112303 -12.839479 8.395007 3.703871 -53.147710 27.331168 -0.000000 0.000000 0.000001 4.038512 12.525168 -12.788818 38.960144 4.839538 -56.848156 0.000015 -24.162440 0.000002 -75.295664 -13.780842 -16.234567 11.160559 -5.176497 -51.539590 2.604337 4.870242 -56.250556 1.098015 3.416177 -35.627605 -0.000000 -0.000003 -0.000001 -7.197448 9.830752 2.280885 5.159097 25.077629 -10.283795 2.999917 18.648033 18.073466 0.000000 -0.000001 -0.000002 -22.271795 21.408757 7.462026 8.368887 40.506809 37.693342 -0.000036 55.034768 0.000042 -27.545840 3.040491 27.349556 -6.346050 2.181171 20.267895 8.983973 -37.094976 -3.614784 -3.047330 -31.442229 -19.958632 0.000000 0.000000 -0.000000 8.811530 6.481379 67.081883 0.881200 -2.728015 35.797257 0.276655 -1.582772 19.827809 0.000005 0.000002 0.000002 -73.595480 -44.180440 -17.673091 31.528030 -5.924278 7.032383 -1.831204 -28.690005 -18.480250 -5.934669 -0.000002 0.000001 -0.000000 0.000001 0.000000 4.220104 -10.694840 8.040806 5.079296 -8.941786 -1.125876 -7.155436 -12.478254 8.615753 -7.234907 -0.801030 7.943296 0.000000 0.000001 0.000000 
-5.952457 79.409767 149.961441 34.744681 46.318098 -46.246719 6.190702 13.479354 -5.980310 3.398839 5.273010 -3.875571 3.419712 5.243064 -3.900924 -0.088797 -12.455024 8.365487 3.198826 -51.764996 27.242167 -0.000000 0.000000 0.000002 3.895949 12.078285 -12.972363 39.469133 5.537097 -59.727593 0.000012 -25.358179 0.000004 -75.541940 -9.994267 -15.491419 11.160620 -5.176449 -51.540140 2.604417 4.870290 -56.251556 1.098022 3.416191 -35.627790 -0.000002 -0.000004 -0.000002 -7.197378 9.830913 2.280922 5.159161 25.077811 -10.283806 2.999929 18.648206 18.073509 -0.000002 0.000001 -0.000002 -21.272832 20.436995 7.891205 15.482686 39.690397 28.332665 -0.000001 52.132157 -0.000002 -25.570881 3.194800 25.061339 -6.789510 2.072550 19.846172 9.075938 -37.892001 -3.651308 -3.093204 -30.591338 -19.788142 -0.000000 -0.000002 -0.000000 9.121005 6.333982 67.618934 0.885606 -2.734122 35.889878 0.309043 -1.669833 20.968971 -0.000001 0.000002 0.000001 -71.680855 -42.457795 -16.674379 32.895789 -7.712268 7.072438 -2.288641 -28.726543 -17.664881 -6.061209 0.000001 0.000001 0.000000 -0.000001 -0.000000 3.752951 -12.121978 7.663722 4.410205 -8.870835 -1.217703 -8.083195 -13.595365 10.361786 -4.623836 -0.237281 4.386255 -0.000000 -0.000001 0.000000 
-5.953228 79.511276 149.916992 32.042613 46.697539 -44.486006 6.051308 13.443536 -6.231896 3.339358 5.264428 -4.014106 3.376606 5.232438 -4.029547 -0.482632 -12.157814 8.272910 3.118056 -50.353698 27.473992 -0.000000 0.000001 0.000001 3.841799 11.765496 -13.005259 39.335951 5.316491 -62.072684 0.000006 -26.949259 0.000002 -75.009827 -7.387558 -13.909897 11.160643 -5.176430 -51.540495 2.604468 4.870324 -56.252164 1.098037 3.416205 -35.627906 0.000002 -0.000001 0.000002 -7.197339 9.831014 2.280937 5.159194 25.077916 -10.283800 2.999946 18.648331 18.073533 0.000000 0.000000 0.000000 -19.973631 19.603452 7.933265 22.822232 39.185560 19.175194 -0.000021 48.618827 0.000026 -24.140358 1.604322 23.934622 -7.294443 1.955213 19.373693 9.145278 -38.491265 -3.678010 -3.149917 -29.598847 -19.590144 -0.000000 0.000001 0.000000 9.398336 6.255284 67.764615 0.878788 -2.724676 35.746570 0.338846 -1.745581 21.969064 0.000002 -0.000002 -0.000002 -69.228571 -40.641149 -15.108681 34.333834 -9.024087 7.055982 -2.666986 -28.805705 -16.700376 -6.167204 0.000002 -0.000004 0.000000 -0.000001 -0.000000 3.690839 -12.907116 7.969640 4.029514 -8.852110 -1.086233 -8.680062 -14.884664 11.110299 -2.695414 -0.031206 1.610876 0.000000 0.000000 -0.000000 
-5.999435 79.746140 149.675903 28.328766 46.712640 -41.982342 5.838169 13.360428 -6.630318 3.229506 5.350344 -4.268947 3.274995 5.314885 -4.283499 -0.896434 -11.939897 8.210867 3.501022 -48.890467 28.108725 -0.000000 0.000002 0.000000 3.839402 11.456116 -12.721900 38.201549 4.267097 -63.783674 0.000021 -28.506305 0.000008 -72.430215 -7.077235 -11.413461 11.160522 -5.176540 -51.539057 2.604262 4.870184 -56.249582 1.097997 3.416174 -35.627414 0.000003 0.000005 -0.000001 -7.197490 9.830583 2.280835 5.159018 25.077449 -10.283771 2.999875 18.647834 18.073428 -0.000001 -0.000001 0.000003 -18.399283 18.696436 7.679172 28.936636 39.537923 12.450199 -0.000001 45.085560 0.000001 -20.954095 -1.843260 24.997003 -7.843969 1.833989 18.863389 9.192300 -38.896216 -3.695593 -3.218249 -28.474106 -19.366646 0.000000 0.000002 -0.000000 9.640274 6.229474 67.521700 0.861235 -2.700142 35.375544 0.364794 -1.808555 22.805882 0.000002 -0.000000 0.000001 -66.043790 -38.834208 -12.812339 35.475671 -9.516540 6.839780 -2.907802 -29.460587 -15.681056 -6.251014 0.000003 -0.000006 0.000000 0.000003 0.000001 4.174694 -13.045844 9.096717 4.570366 -8.870720 -0.474019 -9.100586 -16.395422 10.687017 -1.769314 -0.001430 0.348492 0.000000 0.000000 0.000000 
-6.201199 80.026215 149.210815 23.757160 46.422777 -38.740987 5.589995 13.153946 -7.121689 3.082350 5.461474 -4.548663 3.128923 5.423071 -4.567788 -1.232899 -11.725198 8.193729 4.190750 -47.178186 28.802846 -0.000000 -0.000001 -0.000000 3.882762 11.097720 -12.239884 35.905649 2.537721 -64.694336 -0.000003 -29.744538 0.000003 -67.235747 -8.594983 -7.926703 11.160344 -5.176712 -51.536981 2.603937 4.869976 -56.245754 1.097954 3.416093 -35.626683 -0.000000 0.000001 0.000001 -7.197726 9.829934 2.280643 5.158755 25.076771 -10.283747 2.999829 18.647149 18.073253 -0.000000 0.000000 0.000002 -16.655544 17.566567 7.376886 32.551859 41.042545 9.550858 0.000010 42.558000 -0.000008 -15.465860 -5.113745 27.411308 -8.433708 1.711266 18.320816 9.216987 -39.108369 -3.704669 -3.299087 -27.225655 -19.119446 -0.000000 -0.000001 -0.000000 9.848223 6.253734 66.898588 0.833536 -2.660747 34.783298 0.385867 -1.857850 23.464632 0.000000 -0.000000 0.000001 -62.382618 -36.965902 -10.083890 36.247681 -9.266987 6.395815 -2.954923 -30.553622 -14.725329 -6.295294 -0.000011 0.000002 0.000000 0.000000 -0.000000 4.600977 -13.086829 10.587401 7.863345 -8.951626 0.679961 -10.207462 -17.654449 10.002523 -1.799153 -0.005567 0.685392 0.000000 0.000000 -0.000000 
